<?xml version="1.0" encoding="UTF-8"?>
<svg version="1.1" xmlns="http://www.w3.org/2000/svg" width="512" height="512">
<path d="M0 0 C0.91393876 -0.00765109 1.82787753 -0.01530219 2.7695114 -0.02318513 C5.80936383 -0.04370085 8.84845048 -0.03588916 11.88835144 -0.02792358 C14.07708429 -0.03662466 16.26581105 -0.04699324 18.45452881 -0.05889893 C24.38443347 -0.08562966 30.31408281 -0.08684172 36.24403596 -0.08177233 C41.20160707 -0.07962933 46.1591269 -0.08940887 51.116687 -0.09898317 C63.4853256 -0.12242356 75.8538386 -0.12073325 88.22248473 -0.10786955 C98.27529784 -0.09817924 108.32778885 -0.11531208 118.38053894 -0.15097046 C130.07645588 -0.1923084 141.77214843 -0.21315842 153.46814173 -0.20581949 C159.65122126 -0.20220029 165.83396764 -0.20740065 172.01699257 -0.23524857 C177.83423305 -0.2604696 183.6507477 -0.25645743 189.46797752 -0.23042679 C191.59636052 -0.22570984 193.7247951 -0.23111232 195.8531189 -0.24767303 C208.31827822 -0.33763128 218.38255331 -0.26767237 228.39188862 8.10930443 C234.58521363 14.53226874 236.95060338 22.94249257 236.94773865 31.66778564 C236.92709351 32.62236664 236.90644836 33.57694763 236.88517761 34.56045532 C236.87951782 35.56732391 236.87385803 36.5741925 236.86802673 37.61157227 C236.84584653 40.79035385 236.79568541 43.96795876 236.74455261 47.14639282 C236.72446387 49.31694932 236.70621729 51.4875237 236.68986511 53.65811157 C236.64604248 58.94626547 236.57931797 64.23374505 236.49455261 69.52139282 C237.5330089 69.51862744 238.57146519 69.51586206 239.64138985 69.51301289 C264.94893176 69.44631374 290.25646222 69.3970679 315.56407356 69.36595631 C327.80281327 69.35050977 340.04149479 69.32946263 352.28019714 69.29507446 C362.95166212 69.26510428 373.62308494 69.24580174 384.29459083 69.23912734 C389.94123485 69.23522798 395.5877583 69.22611023 401.23436356 69.20420265 C406.55800378 69.18371704 411.8814747 69.17758328 417.2051506 69.18206978 C419.15047376 69.18124995 421.09580306 69.17535673 423.04109192 69.1637764 C438.10736193 69.07854762 451.7723547 69.43062688 464.49455261 78.52139282 C465.38142761 79.09889282 466.26830261 79.67639282 467.18205261 80.27139282 C474.98792535 87.86629603 480.45155888 97.89774336 481.00071049 108.90191555 C481.02364877 110.81249093 481.02542472 112.72340414 481.00921631 114.63404846 C481.01616184 115.69670396 481.02310737 116.75935946 481.03026336 117.85421664 C481.0484376 121.38533982 481.03829542 124.91578387 481.02799988 128.44692993 C481.03506314 130.9906311 481.04380986 133.53432806 481.05410767 136.07801819 C481.07423643 142.25222419 481.07564083 148.42618267 481.06748212 154.60040873 C481.06116402 159.6219912 481.06233568 164.64352006 481.0687542 169.66510201 C481.06965585 170.38174086 481.07055751 171.09837972 481.07148648 171.83673491 C481.07333782 173.29290927 481.07520038 174.74908362 481.07707404 176.20525796 C481.09362552 189.83817024 481.08495594 203.47097881 481.06808846 217.10388482 C481.05339384 229.55616601 481.06802117 242.00820584 481.09685863 254.46045595 C481.12630248 267.27070899 481.13721041 280.08085085 481.12767643 292.89113623 C481.12665396 294.34204676 481.12565934 295.79295731 481.12469292 297.24386787 C481.12421653 297.95760313 481.12374014 298.67133839 481.12324931 299.40670199 C481.12109176 304.41714788 481.13085399 309.42748769 481.14546394 314.43791008 C481.16488615 321.19242841 481.15782359 327.94642853 481.13326454 334.70095253 C481.12826677 337.17441969 481.13171936 339.64792114 481.14441299 342.12136078 C481.22673557 359.54583474 480.20049296 372.24949969 467.72111511 385.38858032 C459.73324815 392.98520482 450.21747712 396.65092881 439.27462769 396.64164734 C438.02245956 396.643022 436.77029144 396.64439667 435.48017883 396.64581299 C434.10044837 396.64227432 432.72071814 396.63863952 431.34098816 396.63491821 C429.88214113 396.63463602 428.42329397 396.63479471 426.96444702 396.63536072 C423.01031128 396.63564742 419.05620593 396.62977119 415.10207725 396.62278676 C410.96742644 396.61653211 406.83277492 396.61594775 402.69812012 396.61476135 C394.87135115 396.61165427 387.04459616 396.60344927 379.21783334 396.59341186 C370.30615973 396.5822314 361.39448544 396.5767354 352.48280656 396.57171643 C334.15338066 396.56126614 315.82396776 396.54367875 297.49455261 396.52139282 C297.50343506 397.70188202 297.5123175 398.88237122 297.52146912 400.09863281 C297.60272866 411.25030162 297.66260135 422.40190997 297.7018013 433.55380821 C297.72263225 439.28645592 297.75086793 445.01886366 297.79631042 450.75137329 C297.83992818 456.28865527 297.86372348 461.82570715 297.87406158 467.36314774 C297.88142438 469.4705632 297.89580199 471.57796676 297.91747284 473.68528366 C297.9467184 476.6483407 297.95049978 479.61045964 297.94865417 482.57363892 C297.96303528 483.43535706 297.97741638 484.2970752 297.99223328 485.18490601 C297.94263559 492.59485504 296.07167676 499.38642963 291.31095886 505.17764282 C290.5671698 505.78608032 289.82338074 506.39451782 289.05705261 507.02139282 C288.31584167 507.65045532 287.57463074 508.27951782 286.81095886 508.92764282 C281.16590811 512.81159005 276.15441864 512.81831663 269.50700378 512.81192017 C268.50475266 512.81863739 267.50250153 512.82535461 266.46987915 512.83227539 C263.15904268 512.85126136 259.84840888 512.85518 256.53752136 512.85733032 C254.23212603 512.8637581 251.92673151 512.87048644 249.62133789 512.87750244 C244.78861093 512.88947691 239.95595547 512.89318311 235.12321472 512.89199829 C228.93938401 512.89179516 222.75601316 512.91909108 216.57229137 512.95354271 C211.81010851 512.97581256 207.04803626 512.97983579 202.28580666 512.97877884 C200.00650257 512.9811349 197.72719544 512.98995865 195.44794273 513.00544357 C192.25506547 513.02510341 189.06317925 513.01926476 185.87028503 513.00723267 C184.93442566 513.01847168 183.99856628 513.02971069 183.03434753 513.04129028 C175.95081886 512.97367465 170.73574859 511.25202873 165.28752136 506.66201782 C164.75771667 506.03811157 164.22791199 505.41420532 163.68205261 504.77139282 C162.86800964 503.8510022 162.86800964 503.8510022 162.03752136 502.91201782 C157.81498657 496.36976138 157.0598692 490.38198996 157.15397644 482.8006897 C157.15353836 481.86317871 157.15310028 480.92566772 157.15264893 479.95974731 C157.15472522 476.88632786 157.17800145 473.81346602 157.20158386 470.74014282 C157.20718394 468.59923602 157.21145209 466.45832536 157.21444702 464.31741333 C157.22586334 458.7015407 157.2553029 453.08590339 157.28855896 447.47012329 C157.31932917 441.73203718 157.3329672 435.99391278 157.34806824 430.25576782 C157.38017566 419.01087316 157.43133309 407.76615261 157.49455261 396.52139282 C156.71009577 396.5241582 155.92563892 396.52692358 155.11741066 396.52977276 C136.00341444 396.59611234 116.88944129 396.64571217 97.77535439 396.67682934 C88.53180931 396.6922785 79.28834123 396.71333061 70.04484558 396.74771118 C61.98540073 396.77767339 53.92601166 396.796982 45.86651266 396.80365831 C41.60161327 396.80755903 37.33687341 396.81668537 33.0720253 396.83858299 C29.05177512 396.85905608 25.03174909 396.86520492 21.01145172 396.86071587 C19.54176233 396.86153625 18.07206487 396.86743721 16.60242081 396.87900925 C2.16009734 396.98708061 -9.51195459 394.28980818 -20.31794739 384.20889282 C-23.85913403 380.42607227 -26.36348784 376.22343416 -28.50544739 371.52139282 C-29.0156993 370.43493092 -29.52595121 369.34846901 -30.05166531 368.22908401 C-32.27359145 362.20505771 -31.92933613 356.03761414 -31.90658569 349.69442749 C-31.91219618 348.28951286 -31.91910075 346.88460292 -31.92718166 345.47970033 C-31.94547923 341.63295166 -31.94514164 337.78639914 -31.94159853 333.93961692 C-31.94098508 329.78540283 -31.95755648 325.63125096 -31.97177124 321.47706604 C-31.99666158 313.34334718 -32.00493444 305.20969356 -32.00660837 297.0759398 C-32.00803525 290.46247472 -32.01420648 283.84903111 -32.02371025 277.23557281 C-32.05012212 258.47351787 -32.06396961 239.71151435 -32.06171883 220.94944069 C-32.06159896 219.9385511 -32.06147909 218.92766152 -32.06135559 217.88613892 C-32.06123295 216.87401102 -32.06111031 215.86188312 -32.06098395 214.81908467 C-32.05976478 198.41880035 -32.08846985 182.01872272 -32.13077069 165.61849818 C-32.17389045 148.76742732 -32.19457968 131.91645721 -32.19198936 115.06532979 C-32.19099442 105.60927807 -32.19919269 96.15344305 -32.23152351 86.6974411 C-32.25887623 78.64599955 -32.26533381 70.59487293 -32.24499524 62.54340497 C-32.23521804 58.43845208 -32.23496035 54.33410297 -32.26105499 50.22920799 C-32.28473842 46.46477073 -32.28027023 42.70141298 -32.2542026 38.93700114 C-32.24745866 36.94400282 -32.27001664 34.95097025 -32.29392153 32.9581039 C-32.18738222 23.63890297 -29.98939321 15.84256954 -23.88212401 8.59496665 C-17.05547612 2.23551653 -9.1406423 -0.08252897 0 0 Z " fill="#FDC814" transform="translate(31.505447387695313,-0.521392822265625)"/>
<path d="M0 0 C6.51387195 4.79632685 10.59879943 10.3810028 14.75 17.25 C15.35142822 18.22018066 15.95285645 19.19036133 16.57250977 20.18994141 C17.8040349 22.17667001 19.03071795 24.16640862 20.25244141 26.15917969 C22.30412932 29.49439072 24.39607463 32.80242954 26.49633789 36.10717773 C34.72406355 49.05438147 42.8139773 62.08926167 50.93652344 75.10253906 C59.25348213 88.42565903 67.59961329 101.72932798 76 115 C83.17191419 126.32996899 90.3178703 137.6753737 97.40429688 149.05908203 C100.41902626 153.89683418 103.45244357 158.7191864 106.55078125 163.50390625 C107.1025 164.36048828 107.65421875 165.21707031 108.22265625 166.09960938 C109.2478222 167.68773501 110.27988129 169.27144235 111.3203125 170.84960938 C116.91771944 179.54529932 117.90149409 187.76404814 117 198 C114.94530393 206.96930202 109.57471132 213.86627441 101.9375 218.875 C96.01188823 222.45792805 90.3782572 223.28863591 83.5390625 223.1953125 C82.3532106 223.19106766 82.3532106 223.19106766 81.1434021 223.18673706 C78.63710916 223.17560955 76.13118355 223.15051926 73.625 223.125 C71.91797394 223.11496058 70.21094223 223.10583641 68.50390625 223.09765625 C64.3357976 223.07569463 60.16796092 223.04121671 56 223 C56.00888245 224.1804892 56.01776489 225.36097839 56.0269165 226.57723999 C56.10817605 237.7289088 56.16804873 248.88051715 56.20724869 260.03241539 C56.22807964 265.76506309 56.25631532 271.49747084 56.30175781 277.22998047 C56.34537556 282.76726245 56.36917087 288.30431432 56.37950897 293.84175491 C56.38687177 295.94917037 56.40124938 298.05657394 56.42292023 300.16389084 C56.45216578 303.12694788 56.45594717 306.08906682 56.45410156 309.05224609 C56.46848267 309.91396423 56.48286377 310.77568237 56.49768066 311.66351318 C56.44808298 319.07346222 54.57712415 325.86503681 49.81640625 331.65625 C49.07261719 332.2646875 48.32882812 332.873125 47.5625 333.5 C46.82128906 334.1290625 46.08007812 334.758125 45.31640625 335.40625 C39.6713555 339.29019723 34.65986603 339.2969238 28.01245117 339.29052734 C27.01020004 339.29724457 26.00794891 339.30396179 24.97532654 339.31088257 C21.66449006 339.32986854 18.35385627 339.33378717 15.04296875 339.3359375 C12.73757341 339.34236528 10.4321789 339.34909362 8.12678528 339.35610962 C3.29405832 339.36808409 -1.53859714 339.37179029 -6.37133789 339.37060547 C-12.5551686 339.37040234 -18.73853946 339.39769826 -24.92226124 339.43214989 C-29.68444411 339.45441974 -34.44651635 339.45844296 -39.20874596 339.45738602 C-41.48805004 339.45974208 -43.76735718 339.46856582 -46.04660988 339.48405075 C-49.23948714 339.50371059 -52.43137336 339.49787194 -55.62426758 339.48583984 C-56.56012695 339.49707886 -57.49598633 339.50831787 -58.46020508 339.51989746 C-65.54373376 339.45228183 -70.75880402 337.73063591 -76.20703125 333.140625 C-76.73683594 332.51671875 -77.26664062 331.8928125 -77.8125 331.25 C-78.62654297 330.32960938 -78.62654297 330.32960938 -79.45703125 329.390625 C-83.67956604 322.84836856 -84.43468341 316.86059714 -84.34057617 309.27929688 C-84.34101425 308.34178589 -84.34145233 307.4042749 -84.34190369 306.43835449 C-84.33982739 303.36493504 -84.31655116 300.29207319 -84.29296875 297.21875 C-84.28736868 295.0778432 -84.28310052 292.93693254 -84.28010559 290.79602051 C-84.26868927 285.18014788 -84.23924971 279.56451057 -84.20599365 273.94873047 C-84.17522344 268.21064435 -84.16158542 262.47251996 -84.14648438 256.734375 C-84.11437696 245.48948034 -84.06321952 234.24475979 -84 223 C-85.19898926 223.03665771 -86.39797852 223.07331543 -87.63330078 223.11108398 C-92.14691556 223.23925033 -96.66037525 223.31866796 -101.17529297 223.38452148 C-103.1169757 223.41939528 -105.05847921 223.46691403 -106.99951172 223.52807617 C-120.50318058 223.94244868 -131.41466598 223.40022046 -142.09936523 214.19042969 C-148.05212052 208.0824017 -151.10460059 199.20931616 -151.25 190.8125 C-151.27578125 189.93207031 -151.3015625 189.05164063 -151.328125 188.14453125 C-150.48908349 180.10371673 -146.95356695 173.765615 -142.5625 167.125 C-141.47633378 165.44415819 -140.39040264 163.76316446 -139.3046875 162.08203125 C-138.75264648 161.23463379 -138.20060547 160.38723633 -137.63183594 159.51416016 C-135.1147162 155.6360484 -132.65133413 151.72459597 -130.1875 147.8125 C-129.45442627 146.6519812 -129.45442627 146.6519812 -128.70654297 145.46801758 C-122.09830806 135.00338586 -115.55326308 124.49910076 -109 114 C-101.54554664 102.05708607 -94.08702029 90.11743023 -86.55786133 78.22143555 C-81.86745883 70.80454595 -77.22101905 63.36039506 -72.57519531 55.91552734 C-68.17443091 48.86730462 -63.74504032 41.83792382 -59.28833008 34.82495117 C-56.32676313 30.14998148 -53.44904955 25.43234919 -50.61035156 20.68188477 C-43.41361302 8.697611 -37.97105483 0.68340149 -24.01953125 -3.609375 C-15.6861522 -5.22124716 -7.29552263 -4.4645913 0 0 Z " fill="#89C153" transform="translate(273,173)"/>
<path d="M0 0 C16.83 0 33.66 0 51 0 C51 0.66 51 1.32 51 2 C51.721875 2.08507812 52.44375 2.17015625 53.1875 2.2578125 C56.6125834 3.16165395 58.34428062 4.54294642 61 6.875 C61.825 7.57367188 62.65 8.27234375 63.5 8.9921875 C69.87216267 16.65869571 71.74789729 24.5841287 71.48828125 34.35546875 C71.48120651 35.38311844 71.47413177 36.41076813 71.46684265 37.46955872 C71.43914688 40.70965479 71.37645619 43.94793796 71.3125 47.1875 C71.28738504 49.40166752 71.26457753 51.61586248 71.24414062 53.83007812 C71.18940256 59.22065691 71.10603124 64.6101989 71 70 C65.69813441 70.09918586 60.39681382 70.17161755 55.09423828 70.21972656 C53.29205919 70.23979033 51.48994479 70.26704813 49.68798828 70.30175781 C47.09130864 70.35050829 44.49549271 70.37302082 41.8984375 70.390625 C40.69808365 70.42159271 40.69808365 70.42159271 39.47348022 70.45318604 C34.17614678 70.45529096 31.132771 69.60615545 27 66 C23.03977333 61.39182617 22.44201034 57.56089837 22.53125 51.671875 C22.52420044 50.88282776 22.51715088 50.09378052 22.5098877 49.28082275 C22.48061436 45.93134134 22.49693179 42.58245437 22.50927734 39.23291016 C22.52578221 24.03237999 22.52578221 24.03237999 16.2109375 10.4140625 C11.30135824 5.6298342 6.54210787 3.03770573 0 1 C0 0.67 0 0.34 0 0 Z " fill="#FDB000" transform="translate(152,0)"/>
<path d="M0 0 C5.90402443 -0.1496341 11.80691716 -0.25781681 17.71240234 -0.32958984 C19.71617895 -0.35954503 21.71982691 -0.40032476 23.72314453 -0.45263672 C36.45596895 -0.77651405 46.66831284 -0.98599735 56.89550781 7.58935547 C63.14764062 14.0602939 65.45600993 22.5108191 65.45318604 31.29885864 C65.43254089 32.27531342 65.41189575 33.25176819 65.390625 34.2578125 C65.38496521 35.28687714 65.37930542 36.31594177 65.37347412 37.37619019 C65.35128703 40.62628974 65.30112415 43.87524011 65.25 47.125 C65.22991216 49.34373395 65.21166542 51.56248538 65.1953125 53.78125 C65.15490116 59.18828663 65.07657613 64.59287447 65 70 C50.15 70 35.3 70 20 70 C19.99742187 66.74640625 19.99484375 63.4928125 19.9921875 60.140625 C19.96930488 56.95317008 19.93629692 53.76596729 19.90234375 50.57861328 C19.88429158 48.38108353 19.87659545 46.18344128 19.87988281 43.98583984 C20.17237789 24.86900565 20.17237789 24.86900565 10.89599609 8.74145508 C7.6285421 5.62755757 4.40677654 3.2394059 0 2 C0 1.34 0 0.68 0 0 Z " fill="#F77519" transform="translate(203,0)"/>
<path d="M0 0 C0.75990234 -0.020625 1.51980469 -0.04125 2.30273438 -0.0625 C6.91339402 -0.09454629 10.01124029 0.16970953 13.6875 3.25 C16.9429452 7.28732068 17.09308999 10.65166769 17.0625 15.75 C17.07410156 17.68359375 17.07410156 17.68359375 17.0859375 19.65625 C16.53253504 24.64772321 14.53771401 28.05681144 10.6875 31.25 C7.42791743 31.90267544 4.13026874 31.75943889 0.8125 31.75 C-0.08597656 31.77835938 -0.98445313 31.80671875 -1.91015625 31.8359375 C-6.50554256 31.84951324 -8.63531532 31.76693487 -12.3828125 28.90625 C-15.52880118 24.57573927 -15.5843306 20.61003868 -15.6875 15.4375 C-15.72488281 14.73818359 -15.76226562 14.03886719 -15.80078125 13.31835938 C-15.86804448 9.32367073 -15.4741372 6.95055721 -12.9140625 3.80078125 C-8.77831358 -0.25423984 -5.54817381 0.03708053 0 0 Z " fill="#69D1ED" transform="translate(423.3125,96.75)"/>
<path d="M0 0 C0.76441406 -0.020625 1.52882813 -0.04125 2.31640625 -0.0625 C8.05436376 -0.10214047 11.21931757 0.9408215 15.53515625 4.87890625 C17.42315953 8.56385156 17.22355036 12.10725442 17.1875 16.1875 C17.2174707 17.38536133 17.2174707 17.38536133 17.24804688 18.60742188 C17.24468251 22.66820761 17.06904468 24.74621076 14.84765625 28.25390625 C10.76749881 32.13651417 6.81199062 31.50256144 1.4375 31.5625 C0.58220703 31.59150391 -0.27308594 31.62050781 -1.15429688 31.65039062 C-5.37389332 31.69288075 -7.63524817 31.63274023 -11.29296875 29.35546875 C-15.10647799 25.2527113 -14.53735991 21.29549624 -14.625 15.9375 C-14.68107422 14.65456055 -14.68107422 14.65456055 -14.73828125 13.34570312 C-14.80230234 8.75396858 -14.77196277 6.89541111 -11.7890625 3.20703125 C-10.95117188 2.56121094 -10.11328125 1.91539063 -9.25 1.25 C-7.16321478 -0.83678522 -2.86669969 0.01895339 0 0 Z " fill="#67D1EF" transform="translate(463.25,96.75)"/>
<path d="M0 0 C0.75152344 -0.02900391 1.50304687 -0.05800781 2.27734375 -0.08789062 C7.57423779 -0.14797756 10.55140278 0.79845667 14.75 4.3125 C16.50021631 7.81293263 16.01948691 11.76815964 16.0625 15.625 C16.09150391 16.48029297 16.12050781 17.33558594 16.15039062 18.21679688 C16.19288075 22.43639332 16.13274023 24.69774817 13.85546875 28.35546875 C9.7527113 32.16897799 5.79549624 31.59985991 0.4375 31.6875 C-0.41779297 31.72488281 -1.27308594 31.76226562 -2.15429688 31.80078125 C-6.70309605 31.8642037 -8.6088533 31.81784541 -12.29296875 28.9140625 C-15.50728635 24.64113731 -15.52872283 21.2702197 -15.625 16.0625 C-15.66238281 15.31097656 -15.69976562 14.55945313 -15.73828125 13.78515625 C-15.80315768 9.65468994 -15.50587864 7.09287535 -12.8515625 3.828125 C-8.73168148 -0.15566385 -5.4995795 0.06932243 0 0 Z " fill="#68D2EF" transform="translate(383.25,96.6875)"/>
</svg>
